<svg xmlns="http://www.w3.org/2000/svg" width="1400" height="1000" viewBox="0 0 1400 1000">
<defs><linearGradient id="sky" x1="0" y1="0" x2="0" y2="1"><stop offset="0" stop-color="#050a18"/><stop offset="0.6" stop-color="#0d1330"/><stop offset="1" stop-color="#241a3a"/></linearGradient></defs>
<rect width="1400" height="1000" fill="url(#sky)"/>
<polygon points="-1362.0,739.4 -335.5,679.0 -321.2,614.2 -1310.7,621.5" fill="#3767d3" stroke="#1e3974" stroke-width="0.4"/>
<polygon points="-1364.7,737.1 -1362.0,739.4 -1310.7,621.5 -1314.3,621.2" fill="#3c70e4" stroke="#213e7d" stroke-width="0.4"/>
<polygon points="-370.0,681.6 -1209.3,731.4 -1204.0,733.5 -358.0,682.4" fill="#3f75ed" stroke="#234082" stroke-width="0.4"/>
<polygon points="-1204.8,735.6 -358.3,683.6 -358.0,682.4 -1204.0,733.5" fill="#3767d3" stroke="#1e3974" stroke-width="0.4"/>
<polygon points="-1210.2,733.4 -1204.8,735.6 -1204.0,733.5 -1209.3,731.4" fill="#3c70e4" stroke="#213e7d" stroke-width="0.4"/>
<polygon points="-124.9,692.1 -87.9,689.0 -75.5,615.5 -111.5,615.8" fill="#3767d3" stroke="#1e3974" stroke-width="0.4"/>
<polygon points="-347.0,678.3 -124.9,692.1 -111.5,615.8 -332.6,614.2" fill="#3c70e4" stroke="#213e7d" stroke-width="0.4"/>
<polygon points="-358.0,682.4 -401.9,685.0 -266.9,694.7 -223.0,691.4" fill="#3f75ed" stroke="#234082" stroke-width="0.4"/>
<polygon points="-267.2,696.1 -223.3,692.7 -223.0,691.4 -266.9,694.7" fill="#3767d3" stroke="#1e3974" stroke-width="0.4"/>
<polygon points="-402.2,686.3 -267.2,696.1 -266.9,694.7 -401.9,685.0" fill="#3c70e4" stroke="#213e7d" stroke-width="0.4"/>
<polygon points="-335.5,679.0 -1362.0,739.4 -1307.7,785.8 -140.8,691.1" fill="#141d36" stroke="#0b101e" stroke-width="0.4"/>
<polygon points="-1327.6,833.2 -144.8,713.1 -140.8,691.1 -1307.7,785.8" fill="#121930" stroke="#0a0e1a" stroke-width="0.4"/>
<polygon points="-1377.1,774.2 -1327.6,833.2 -1307.7,785.8 -1362.0,739.4" fill="#131c34" stroke="#0a0f1d" stroke-width="0.4"/>
<polygon points="-1092.9,726.8 -1204.0,733.5 -1137.9,760.5 -1009.2,750.7" fill="#3f75ed" stroke="#234082" stroke-width="0.4"/>
<polygon points="-1138.9,763.0 -1010.0,753.1 -1009.2,750.7 -1137.9,760.5" fill="#3767d3" stroke="#1e3974" stroke-width="0.4"/>
<polygon points="-1204.8,735.6 -1138.9,763.0 -1137.9,760.5 -1204.0,733.5" fill="#3c70e4" stroke="#213e7d" stroke-width="0.4"/>
<polygon points="-1491.4,806.0 -1302.5,790.3 -1234.5,627.5 -1410.9,629.3" fill="#3767d3" stroke="#1e3974" stroke-width="0.4"/>
<polygon points="-223.0,691.4 -1137.9,760.5 -1129.8,763.8 -207.7,692.4" fill="#3f75ed" stroke="#234082" stroke-width="0.4"/>
<polygon points="-1130.8,766.4 -208.0,693.8 -207.7,692.4 -1129.8,763.8" fill="#3767d3" stroke="#1e3974" stroke-width="0.4"/>
<polygon points="-1138.9,763.0 -1130.8,766.4 -1129.8,763.8 -1137.9,760.5" fill="#3c70e4" stroke="#213e7d" stroke-width="0.4"/>
<polygon points="-264.3,703.7 -124.9,692.1 -111.5,615.8 -246.6,617.2" fill="#3767d3" stroke="#1e3974" stroke-width="0.4"/>
<polygon points="-280.5,702.5 -264.3,703.7 -246.6,617.2 -262.7,617.1" fill="#3c70e4" stroke="#213e7d" stroke-width="0.4"/>
<polygon points="-1302.5,790.3 -857.2,753.2 -814.6,623.1 -1234.5,627.5" fill="#3767d3" stroke="#1e3974" stroke-width="0.4"/>
<polygon points="-1307.7,785.8 -1302.5,790.3 -1234.5,627.5 -1241.1,627.0" fill="#3c70e4" stroke="#213e7d" stroke-width="0.4"/>
<polygon points="618.7,515.1 635.8,514.4 628.4,512.0 610.8,512.7" fill="#444850" stroke="#25282c" stroke-width="0.4"/>
<polygon points="628.4,512.0 635.8,514.4 637.9,370.7 630.7,364.8" fill="#484d56" stroke="#282a2f" stroke-width="0.4"/>
<polygon points="610.8,512.7 628.4,512.0 630.7,364.8 613.7,366.7" fill="#4f545d" stroke="#2b2e33" stroke-width="0.4"/>
<polygon points="621.2,372.6 864.2,346.1 862.7,338.8 613.7,366.7" fill="#444850" stroke="#25282c" stroke-width="0.4"/>
<polygon points="862.7,338.8 864.2,346.1 863.2,319.6 861.7,311.6" fill="#484d56" stroke="#282a2f" stroke-width="0.4"/>
<polygon points="613.7,366.7 862.7,338.8 861.7,311.6 614.2,342.1" fill="#4f545d" stroke="#2b2e33" stroke-width="0.4"/>
<polygon points="-152.6,730.4 -109.0,725.3 -50.3,382.3 -88.3,373.6" fill="#484d56" stroke="#282a2f" stroke-width="0.4"/>
<polygon points="-170.5,728.7 -152.6,730.4 -88.3,373.6 -105.7,376.4" fill="#4f545d" stroke="#2b2e33" stroke-width="0.4"/>
<polygon points="621.7,605.1 623.3,605.1 627.1,379.4 625.6,378.3" fill="#3767d3" stroke="#1e3974" stroke-width="0.4"/>
<polygon points="610.9,605.1 621.7,605.1 625.6,378.3 615.3,379.4" fill="#3c70e4" stroke="#213e7d" stroke-width="0.4"/>
<polygon points="630.7,364.8 841.8,341.2 841.4,339.7 629.3,363.5" fill="#3461c5" stroke="#1d356c" stroke-width="0.4"/>
<polygon points="841.4,339.7 841.8,341.2 841.6,333.4 841.1,331.9" fill="#3767d3" stroke="#1e3974" stroke-width="0.4"/>
<polygon points="629.3,363.5 841.4,339.7 841.1,331.9 629.4,356.4" fill="#3c70e4" stroke="#213e7d" stroke-width="0.4"/>
<polygon points="-67.5,384.9 -50.3,382.3 -852.2,197.8 -866.3,206.5" fill="#444850" stroke="#25282c" stroke-width="0.4"/>
<polygon points="-852.2,197.8 -50.3,382.3 -43.1,340.3 -825.2,124.9" fill="#484d56" stroke="#282a2f" stroke-width="0.4"/>
<polygon points="-866.3,206.5 -852.2,197.8 -825.2,124.9 -839.7,134.9" fill="#4f545d" stroke="#2b2e33" stroke-width="0.4"/>
<polygon points="612.4,775.9 632.3,764.8 635.8,514.4 617.3,508.4" fill="#484d56" stroke="#282a2f" stroke-width="0.4"/>
<polygon points="593.3,774.4 612.4,775.9 617.3,508.4 599.2,509.2" fill="#4f545d" stroke="#2b2e33" stroke-width="0.4"/>
<polygon points="-103.2,381.3 -92.8,379.6 -744.0,234.4 -753.3,238.8" fill="#3461c5" stroke="#1d356c" stroke-width="0.4"/>
<polygon points="-744.0,234.4 -92.8,379.6 -91.8,374.1 -741.1,225.6" fill="#3767d3" stroke="#1e3974" stroke-width="0.4"/>
<polygon points="-753.3,238.8 -744.0,234.4 -741.1,225.6 -750.4,230.2" fill="#3c70e4" stroke="#213e7d" stroke-width="0.4"/>
<polygon points="849.1,505.4 870.2,504.5 868.8,501.5 847.1,502.5" fill="#444850" stroke="#25282c" stroke-width="0.4"/>
<polygon points="868.8,501.5 870.2,504.5 864.2,346.1 862.7,338.8" fill="#484d56" stroke="#282a2f" stroke-width="0.4"/>
<polygon points="847.1,502.5 868.8,501.5 862.7,338.8 841.8,341.2" fill="#4f545d" stroke="#2b2e33" stroke-width="0.4"/>
<polygon points="853.3,694.3 855.2,691.7 852.8,617.9 850.8,618.3" fill="#484d56" stroke="#282a2f" stroke-width="0.4"/>
<polygon points="625.7,685.8 853.3,694.3 850.8,618.3 626.7,617.1" fill="#4f545d" stroke="#2b2e33" stroke-width="0.4"/>
<polygon points="850.8,618.3 852.8,617.9 852.7,613.7 850.7,613.9" fill="#3767d3" stroke="#1e3974" stroke-width="0.4"/>
<polygon points="626.7,617.1 850.8,618.3 850.7,613.9 626.8,613.1" fill="#3c70e4" stroke="#213e7d" stroke-width="0.4"/>
<polygon points="-39.5,721.4 5.4,715.9 19.7,618.7 -23.6,619.4" fill="#3767d3" stroke="#1e3974" stroke-width="0.4"/>
<polygon points="-264.3,703.7 -39.5,721.4 -23.6,619.4 -246.6,617.2" fill="#3c70e4" stroke="#213e7d" stroke-width="0.4"/>
<polygon points="-1089.4,839.9 -941.5,822.6 -737.9,224.1 -852.2,197.8" fill="#484d56" stroke="#282a2f" stroke-width="0.4"/>
<polygon points="-1099.8,834.2 -1089.4,839.9 -852.2,197.8 -866.3,206.5" fill="#4f545d" stroke="#2b2e33" stroke-width="0.4"/>
<polygon points="581.5,697.9 625.7,685.8 626.7,617.1 583.5,618.8" fill="#484d56" stroke="#282a2f" stroke-width="0.4"/>
<polygon points="561.0,697.0 581.5,697.9 583.5,618.8 563.3,618.7" fill="#4f545d" stroke="#2b2e33" stroke-width="0.4"/>
<polygon points="583.5,618.8 626.7,617.1 626.8,613.1 583.6,614.3" fill="#3767d3" stroke="#1e3974" stroke-width="0.4"/>
<polygon points="563.3,618.7 583.5,618.8 583.6,614.3 563.4,614.2" fill="#3c70e4" stroke="#213e7d" stroke-width="0.4"/>
<polygon points="867.9,605.1 868.2,605.1 859.0,355.0 858.7,353.6" fill="#3767d3" stroke="#1e3974" stroke-width="0.4"/>
<polygon points="854.5,605.1 867.9,605.1 858.7,353.6 846.1,354.9" fill="#3c70e4" stroke="#213e7d" stroke-width="0.4"/>
<polygon points="-75.7,737.4 -33.1,731.7 22.7,371.2 -14.2,361.6" fill="#484d56" stroke="#282a2f" stroke-width="0.4"/>
<polygon points="-95.7,735.6 -75.7,737.4 -14.2,361.6 -33.5,364.7" fill="#4f545d" stroke="#2b2e33" stroke-width="0.4"/>
<polygon points="877.8,797.2 880.7,783.3 870.2,504.5 866.7,497.1" fill="#484d56" stroke="#282a2f" stroke-width="0.4"/>
<polygon points="853.6,795.3 877.8,797.2 866.7,497.1 844.1,498.1" fill="#4f545d" stroke="#2b2e33" stroke-width="0.4"/>
<polygon points="581.5,697.9 591.8,695.1 593.5,618.4 583.5,618.8" fill="#484d56" stroke="#282a2f" stroke-width="0.4"/>
<polygon points="517.2,695.1 581.5,697.9 583.5,618.8 520.2,618.4" fill="#4f545d" stroke="#2b2e33" stroke-width="0.4"/>
<polygon points="583.5,618.8 593.5,618.4 593.6,614.0 583.6,614.3" fill="#3767d3" stroke="#1e3974" stroke-width="0.4"/>
<polygon points="520.2,618.4 583.5,618.8 583.6,614.3 520.4,614.0" fill="#3c70e4" stroke="#213e7d" stroke-width="0.4"/>
<polygon points="3.8,374.1 22.7,371.2 -789.0,159.2 -805.9,169.5" fill="#444850" stroke="#25282c" stroke-width="0.4"/>
<polygon points="-789.0,159.2 22.7,371.2 29.5,327.3 -760.7,80.2" fill="#484d56" stroke="#282a2f" stroke-width="0.4"/>
<polygon points="-805.9,169.5 -789.0,159.2 -760.7,80.2 -777.9,92.1" fill="#4f545d" stroke="#2b2e33" stroke-width="0.4"/>
<polygon points="-30.6,369.8 -19.1,368.0 -675.9,201.8 -686.9,207.0" fill="#3461c5" stroke="#1d356c" stroke-width="0.4"/>
<polygon points="-675.9,201.8 -19.1,368.0 -18.1,362.2 -672.8,192.4" fill="#3767d3" stroke="#1e3974" stroke-width="0.4"/>
<polygon points="-686.9,207.0 -675.9,201.8 -672.8,192.4 -683.8,197.7" fill="#3c70e4" stroke="#213e7d" stroke-width="0.4"/>
<polygon points="696.8,690.6 674.1,699.3 746.7,702.4 763.1,693.1" fill="#3f75ed" stroke="#234082" stroke-width="0.4"/>
<polygon points="747.1,742.5 763.5,729.3 763.1,693.1 746.7,702.4" fill="#3767d3" stroke="#1e3974" stroke-width="0.4"/>
<polygon points="673.9,738.0 747.1,742.5 746.7,702.4 674.1,699.3" fill="#3c70e4" stroke="#213e7d" stroke-width="0.4"/>
<polygon points="625.9,669.4 582.0,679.1 841.6,688.2 852.7,676.2" fill="#141d36" stroke="#0b101e" stroke-width="0.4"/>
<polygon points="842.3,709.5 853.3,694.3 852.7,676.2 841.6,688.2" fill="#121930" stroke="#0a0e1a" stroke-width="0.4"/>
<polygon points="581.5,697.9 842.3,709.5 841.6,688.2 582.0,679.1" fill="#131c34" stroke="#0a0f1d" stroke-width="0.4"/>
<polygon points="-801.2,813.8 -661.6,796.9 -613.8,628.3 -744.0,630.2" fill="#3767d3" stroke="#1e3974" stroke-width="0.4"/>
<polygon points="-975.9,763.0 -801.2,813.8 -744.0,630.2 -927.1,624.3" fill="#3c70e4" stroke="#213e7d" stroke-width="0.4"/>
<polygon points="-280.5,702.5 -869.9,750.3 -580.3,815.1 42.4,727.8" fill="#141d36" stroke="#0b101e" stroke-width="0.4"/>
<polygon points="-595.1,870.6 38.0,759.5 42.4,727.8 -580.3,815.1" fill="#121930" stroke="#0a0e1a" stroke-width="0.4"/>
<polygon points="-882.4,788.0 -595.1,870.6 -580.3,815.1 -869.9,750.3" fill="#131c34" stroke="#0a0f1d" stroke-width="0.4"/>
<polygon points="868.8,710.6 876.0,695.2 873.2,618.4 865.5,620.7" fill="#484d56" stroke="#282a2f" stroke-width="0.4"/>
<polygon points="842.3,709.5 868.8,710.6 865.5,620.7 839.6,620.5" fill="#4f545d" stroke="#2b2e33" stroke-width="0.4"/>
<polygon points="734.0,678.4 729.2,680.3 733.8,680.4 738.4,678.5" fill="#fff262" stroke="#8c8536" stroke-width="0.4"/>
<polygon points="733.8,681.7 738.4,679.7 738.4,678.5 733.8,680.4" fill="#f0d656" stroke="#84762f" stroke-width="0.4"/>
<polygon points="729.2,681.5 733.8,681.7 733.8,680.4 729.2,680.3" fill="#ffe95e" stroke="#8c8034" stroke-width="0.4"/>
<polygon points="865.5,620.7 873.2,618.4 873.0,614.0 865.4,615.5" fill="#3767d3" stroke="#1e3974" stroke-width="0.4"/>
<polygon points="839.6,620.5 865.5,620.7 865.4,615.5 839.4,615.4" fill="#3c70e4" stroke="#213e7d" stroke-width="0.4"/>
<polygon points="-1041.7,866.0 -882.6,844.8 -669.1,190.5 -789.0,159.2" fill="#484d56" stroke="#282a2f" stroke-width="0.4"/>
<polygon points="-1054.6,858.9 -1041.7,866.0 -789.0,159.2 -805.9,169.5" fill="#4f545d" stroke="#2b2e33" stroke-width="0.4"/>
<polygon points="842.2,620.0 839.6,620.5 924.7,621.1 924.4,620.5" fill="#525760" stroke="#2d3035" stroke-width="0.4"/>
<polygon points="842.3,709.5 929.1,713.3 924.7,621.1 839.6,620.5" fill="#4f545d" stroke="#2b2e33" stroke-width="0.4"/>
<polygon points="839.6,620.5 924.7,621.1 924.4,615.7 839.4,615.4" fill="#3c70e4" stroke="#213e7d" stroke-width="0.4"/>
<polygon points="17.4,725.9 61.2,720.0 115.8,316.3 78.4,302.9" fill="#3767d3" stroke="#1e3974" stroke-width="0.4"/>
<polygon points="-39.5,721.4 17.4,725.9 78.4,302.9 24.4,313.1" fill="#3c70e4" stroke="#213e7d" stroke-width="0.4"/>
<polygon points="529.1,692.4 203.6,765.4 233.4,768.2 548.3,693.3" fill="#141d36" stroke="#0b101e" stroke-width="0.4"/>
<polygon points="223.3,871.7 546.5,747.8 548.3,693.3 233.4,768.2" fill="#121930" stroke="#0a0e1a" stroke-width="0.4"/>
<polygon points="193.0,867.1 223.3,871.7 233.4,768.2 203.6,765.4" fill="#131c34" stroke="#0a0f1d" stroke-width="0.4"/>
<polygon points="501.2,618.3 189.6,628.1 217.8,628.5 520.2,618.4" fill="#525760" stroke="#2d3035" stroke-width="0.4"/>
<polygon points="203.6,765.4 517.2,695.1 520.2,618.4 217.8,628.5" fill="#484d56" stroke="#282a2f" stroke-width="0.4"/>
<polygon points="174.7,762.8 203.6,765.4 217.8,628.5 189.6,628.1" fill="#4f545d" stroke="#2b2e33" stroke-width="0.4"/>
<polygon points="713.3,686.6 707.4,689.0 712.4,689.1 718.2,686.8" fill="#fff262" stroke="#8c8536" stroke-width="0.4"/>
<polygon points="712.4,690.5 718.2,688.1 718.2,686.8 712.4,689.1" fill="#f0d656" stroke="#84762f" stroke-width="0.4"/>
<polygon points="707.4,690.3 712.4,690.5 712.4,689.1 707.4,689.0" fill="#ffe95e" stroke="#8c8034" stroke-width="0.4"/>
<polygon points="217.8,628.5 520.2,618.4 520.4,614.0 218.7,620.7" fill="#3767d3" stroke="#1e3974" stroke-width="0.4"/>
<polygon points="189.6,628.1 217.8,628.5 218.7,620.7 190.4,620.4" fill="#3c70e4" stroke="#213e7d" stroke-width="0.4"/>
<polygon points="12.5,389.0 67.1,381.3 -452.6,244.6 -510.6,264.2" fill="#3461c5" stroke="#1d356c" stroke-width="0.4"/>
<polygon points="-452.6,244.6 67.1,381.3 78.4,302.9 -419.8,123.6" fill="#3767d3" stroke="#1e3974" stroke-width="0.4"/>
<polygon points="-510.6,264.2 -452.6,244.6 -419.8,123.6 -477.9,149.0" fill="#3c70e4" stroke="#213e7d" stroke-width="0.4"/>
<polygon points="104.9,625.5 31.6,627.3 56.4,627.7 128.6,625.8" fill="#525760" stroke="#2d3035" stroke-width="0.4"/>
<polygon points="38.0,759.5 113.8,746.2 128.6,625.8 56.4,627.7" fill="#484d56" stroke="#282a2f" stroke-width="0.4"/>
<polygon points="12.9,757.0 38.0,759.5 56.4,627.7 31.6,627.3" fill="#4f545d" stroke="#2b2e33" stroke-width="0.4"/>
<polygon points="56.4,627.7 128.6,625.8 129.5,618.9 57.4,620.1" fill="#3767d3" stroke="#1e3974" stroke-width="0.4"/>
<polygon points="31.6,627.3 56.4,627.7 57.4,620.1 32.7,619.9" fill="#3c70e4" stroke="#213e7d" stroke-width="0.4"/>
<polygon points="643.5,672.3 359.7,741.5 366.6,742.0 647.4,672.4" fill="#3f75ed" stroke="#234082" stroke-width="0.4"/>
<polygon points="366.5,744.3 647.4,673.5 647.4,672.4 366.6,742.0" fill="#3767d3" stroke="#1e3974" stroke-width="0.4"/>
<polygon points="359.5,743.8 366.5,744.3 366.6,742.0 359.7,741.5" fill="#3c70e4" stroke="#213e7d" stroke-width="0.4"/>
<polygon points="345.5,812.0 278.2,836.3 306.2,839.9 371.5,814.9" fill="#525760" stroke="#2d3035" stroke-width="0.4"/>
<polygon points="293.3,999.2 361.9,956.0 371.5,814.9 306.2,839.9" fill="#484d56" stroke="#282a2f" stroke-width="0.4"/>
<polygon points="264.6,993.0 293.3,999.2 306.2,839.9 278.2,836.3" fill="#4f545d" stroke="#2b2e33" stroke-width="0.4"/>
<polygon points="-750.1,828.7 -605.8,809.4 -419.8,123.6 -526.9,85.0" fill="#3767d3" stroke="#1e3974" stroke-width="0.4"/>
<polygon points="-801.2,813.8 -750.1,828.7 -526.9,85.0 -583.3,114.6" fill="#3c70e4" stroke="#213e7d" stroke-width="0.4"/>
<polygon points="278.2,836.3 193.0,867.1 223.3,871.7 306.2,839.9" fill="#525760" stroke="#2d3035" stroke-width="0.4"/>
<polygon points="190.1,1211.0 282.3,1134.4 306.2,839.9 223.3,871.7" fill="#484d56" stroke="#282a2f" stroke-width="0.4"/>
<polygon points="158.4,1199.8 190.1,1211.0 223.3,871.7 193.0,867.1" fill="#4f545d" stroke="#2b2e33" stroke-width="0.4"/>
<polygon points="687.4,696.9 679.9,699.9 685.5,700.1 692.9,697.1" fill="#fff262" stroke="#8c8536" stroke-width="0.4"/>
<polygon points="685.5,701.7 692.9,698.6 692.9,697.1 685.5,700.1" fill="#f0d656" stroke="#84762f" stroke-width="0.4"/>
<polygon points="679.9,701.4 685.5,701.7 685.5,700.1 679.9,699.9" fill="#ffe95e" stroke="#8c8034" stroke-width="0.4"/>
<polygon points="128.6,625.8 90.1,626.8 217.8,628.5 252.9,627.3" fill="#525760" stroke="#2d3035" stroke-width="0.4"/>
<polygon points="203.6,765.4 240.4,757.2 252.9,627.3 217.8,628.5" fill="#484d56" stroke="#282a2f" stroke-width="0.4"/>
<polygon points="73.4,753.3 203.6,765.4 217.8,628.5 90.1,626.8" fill="#4f545d" stroke="#2b2e33" stroke-width="0.4"/>
<polygon points="217.8,628.5 252.9,627.3 253.6,619.9 218.7,620.7" fill="#3767d3" stroke="#1e3974" stroke-width="0.4"/>
<polygon points="90.1,626.8 217.8,628.5 218.7,620.7 91.0,619.5" fill="#3c70e4" stroke="#213e7d" stroke-width="0.4"/>
<polygon points="-867.0,636.2 -696.9,633.3 -518.6,41.1 -648.7,-10.1" fill="#484d56" stroke="#282a2f" stroke-width="0.4"/>
<polygon points="-887.8,635.2 -867.0,636.2 -648.7,-10.1 -672.8,6.9" fill="#4f545d" stroke="#2b2e33" stroke-width="0.4"/>
<polygon points="807.8,677.3 674.6,764.4 684.0,765.1 812.4,677.5" fill="#3f75ed" stroke="#234082" stroke-width="0.4"/>
<polygon points="684.0,767.7 812.4,678.7 812.4,677.5 684.0,765.1" fill="#3767d3" stroke="#1e3974" stroke-width="0.4"/>
<polygon points="674.6,767.0 684.0,767.7 684.0,765.1 674.6,764.4" fill="#3c70e4" stroke="#213e7d" stroke-width="0.4"/>
<polygon points="517.9,676.8 207.0,732.5 938.7,786.5 928.1,691.3" fill="#141d36" stroke="#0b101e" stroke-width="0.4"/>
<polygon points="203.6,765.4 941.1,834.1 938.7,786.5 207.0,732.5" fill="#131c34" stroke="#0a0f1d" stroke-width="0.4"/>
<polygon points="901.9,708.3 882.7,828.6 941.1,834.1 928.8,709.5" fill="#141d36" stroke="#0b101e" stroke-width="0.4"/>
<polygon points="888.2,973.4 948.5,982.7 941.1,834.1 882.7,828.6" fill="#131c34" stroke="#0a0f1d" stroke-width="0.4"/>
<polygon points="654.0,710.1 644.1,714.1 650.5,714.4 660.2,710.4" fill="#fff262" stroke="#8c8536" stroke-width="0.4"/>
<polygon points="650.5,716.2 660.2,712.2 660.2,710.4 650.5,714.4" fill="#f0d656" stroke="#84762f" stroke-width="0.4"/>
<polygon points="644.1,715.9 650.5,716.2 650.5,714.4 644.1,714.1" fill="#ffe95e" stroke="#8c8034" stroke-width="0.4"/>
<polygon points="924.7,621.1 931.3,638.1 989.9,638.9 952.5,621.2" fill="#525760" stroke="#2d3035" stroke-width="0.4"/>
<polygon points="941.1,834.1 1002.5,839.8 989.9,638.9 931.3,638.1" fill="#4f545d" stroke="#2b2e33" stroke-width="0.4"/>
<polygon points="931.3,638.1 989.9,638.9 989.2,627.6 930.8,627.1" fill="#3c70e4" stroke="#213e7d" stroke-width="0.4"/>
<polygon points="896.4,873.1 892.9,915.4 943.7,921.9 940.2,878.0" fill="#525760" stroke="#2d3035" stroke-width="0.4"/>
<polygon points="901.4,1131.4 954.6,1143.0 943.7,921.9 892.9,915.4" fill="#4f545d" stroke="#2b2e33" stroke-width="0.4"/>
<polygon points="609.3,727.9 595.7,733.3 603.1,733.7 616.4,728.3" fill="#fff262" stroke="#8c8536" stroke-width="0.4"/>
<polygon points="603.0,735.8 616.4,730.3 616.4,728.3 603.1,733.7" fill="#f0d656" stroke="#84762f" stroke-width="0.4"/>
<polygon points="595.7,735.4 603.0,735.8 603.1,733.7 595.7,733.3" fill="#ffe95e" stroke="#8c8034" stroke-width="0.4"/>
<polygon points="892.9,915.4 888.2,973.4 948.5,982.7 943.7,921.9" fill="#525760" stroke="#2d3035" stroke-width="0.4"/>
<polygon points="906.7,1465.1 973.7,1488.8 948.5,982.7 888.2,973.4" fill="#4f545d" stroke="#2b2e33" stroke-width="0.4"/>
<polygon points="930.5,635.8 931.3,638.1 1361.7,643.9 1326.0,640.8" fill="#525760" stroke="#2d3035" stroke-width="0.4"/>
<polygon points="941.1,834.1 1394.8,876.3 1361.7,643.9 931.3,638.1" fill="#4f545d" stroke="#2b2e33" stroke-width="0.4"/>
<polygon points="929.9,625.5 930.8,627.1 1359.8,630.9 1324.4,628.8" fill="#3f75ed" stroke="#234082" stroke-width="0.4"/>
<polygon points="931.3,638.1 1361.7,643.9 1359.8,630.9 930.8,627.1" fill="#3c70e4" stroke="#213e7d" stroke-width="0.4"/>
<polygon points="-186.4,862.4 -211.4,868.3 626.5,1036.8 636.9,1021.4" fill="#3f75ed" stroke="#234082" stroke-width="0.4"/>
<polygon points="626.4,1044.3 636.9,1028.6 636.9,1021.4 626.5,1036.8" fill="#3767d3" stroke="#1e3974" stroke-width="0.4"/>
<polygon points="-212.2,872.7 626.4,1044.3 626.5,1036.8 -211.4,868.3" fill="#3c70e4" stroke="#213e7d" stroke-width="0.4"/>
<polygon points="2569.4,701.5 3368.8,748.1 2257.7,-1230.4 1962.6,-826.0" fill="#4d525b" stroke="#2a2d32" stroke-width="0.4"/>
<polygon points="3368.8,748.1 4244.3,773.7 2625.1,-1409.0 2257.7,-1230.4" fill="#4f545d" stroke="#2b2e33" stroke-width="0.4"/>
<text x="14" y="26" font-family="monospace" font-size="15" fill="#8fa0bd">GENERATED GEOMETRY — inspection view (not an in-game screenshot)</text>
<text x="14" y="46" font-family="monospace" font-size="11" fill="#5f6f8d">94 drawn / 115 selected / 11244 in map  •  x[-1204,-236] y[-1620,-396] z[3440,3996]</text>
</svg>