<svg xmlns="http://www.w3.org/2000/svg" width="1400" height="1000" viewBox="0 0 1400 1000">
<defs><linearGradient id="sky" x1="0" y1="0" x2="0" y2="1"><stop offset="0" stop-color="#050a18"/><stop offset="0.6" stop-color="#0d1330"/><stop offset="1" stop-color="#241a3a"/></linearGradient></defs>
<rect width="1400" height="1000" fill="url(#sky)"/>
<polygon points="770.8,413.4 767.8,417.7 774.6,419.3 777.7,415.1" fill="#732b4f" stroke="#3f182b" stroke-width="0.4"/>
<polygon points="770.8,413.4 777.7,415.1 775.2,359.1 768.5,357.4" fill="#eb57a2" stroke="#813059" stroke-width="0.4"/>
<polygon points="767.8,417.7 770.8,413.4 768.5,357.4 765.6,361.8" fill="#d14e90" stroke="#732b4f" stroke-width="0.4"/>
<polygon points="769.6,448.9 762.2,458.8 779.0,462.5 786.6,452.7" fill="#1a6069" stroke="#0e353a" stroke-width="0.4"/>
<polygon points="769.6,448.9 786.6,452.7 784.7,413.2 768.1,409.3" fill="#35c5d7" stroke="#1d6c76" stroke-width="0.4"/>
<polygon points="762.2,458.8 769.6,448.9 768.1,409.3 760.9,419.5" fill="#30afc0" stroke="#1a606a" stroke-width="0.4"/>
<polygon points="652.1,395.4 650.5,398.1 655.0,399.2 656.5,396.5" fill="#732b4f" stroke="#3f182b" stroke-width="0.4"/>
<polygon points="652.1,395.4 656.5,396.5 657.5,357.7 653.2,356.7" fill="#eb57a2" stroke="#813059" stroke-width="0.4"/>
<polygon points="650.5,398.1 652.1,395.4 653.2,356.7 651.7,359.4" fill="#d14e90" stroke="#732b4f" stroke-width="0.4"/>
<polygon points="522.7,355.1 520.8,359.9 528.6,361.8 530.6,356.9" fill="#732b4f" stroke="#3f182b" stroke-width="0.4"/>
<polygon points="522.7,355.1 530.6,356.9 536.4,299.3 528.8,297.4" fill="#eb57a2" stroke="#813059" stroke-width="0.4"/>
<polygon points="520.8,359.9 522.7,355.1 528.8,297.4 526.9,302.4" fill="#d14e90" stroke="#732b4f" stroke-width="0.4"/>
<polygon points="768.8,486.9 757.5,501.4 783.2,506.8 794.9,492.5" fill="#6c571a" stroke="#3b300e" stroke-width="0.4"/>
<polygon points="768.8,486.9 794.9,492.5 792.8,451.1 767.2,445.4" fill="#ddb235" stroke="#7a621d" stroke-width="0.4"/>
<polygon points="757.5,501.4 768.8,486.9 767.2,445.4 756.2,460.3" fill="#c59f30" stroke="#6c571a" stroke-width="0.4"/>
<polygon points="648.9,433.6 645.3,439.8 655.9,442.1 659.6,435.9" fill="#6c571a" stroke="#3b300e" stroke-width="0.4"/>
<polygon points="648.9,433.6 659.6,435.9 660.5,395.4 650.1,392.9" fill="#ddb235" stroke="#7a621d" stroke-width="0.4"/>
<polygon points="645.3,439.8 648.9,433.6 650.1,392.9 646.6,399.3" fill="#c59f30" stroke="#6c571a" stroke-width="0.4"/>
<polygon points="514.1,391.3 509.5,402.7 528.7,406.9 533.5,395.7" fill="#1a6069" stroke="#0e353a" stroke-width="0.4"/>
<polygon points="514.1,391.3 533.5,395.7 537.5,354.8 518.5,350.4" fill="#35c5d7" stroke="#1d6c76" stroke-width="0.4"/>
<polygon points="509.5,402.7 514.1,391.3 518.5,350.4 514.0,362.0" fill="#30afc0" stroke="#1a606a" stroke-width="0.4"/>
<polygon points="826.6,346.3 824.4,349.4 828.9,350.5 831.1,347.5" fill="#732b4f" stroke="#3f182b" stroke-width="0.4"/>
<polygon points="826.6,346.3 831.1,347.5 828.0,307.8 823.6,306.6" fill="#eb57a2" stroke="#813059" stroke-width="0.4"/>
<polygon points="824.4,349.4 826.6,346.3 823.6,306.6 821.5,309.7" fill="#d14e90" stroke="#732b4f" stroke-width="0.4"/>
<polygon points="645.1,473.2 638.8,483.5 657.3,487.4 663.8,477.2" fill="#1a6069" stroke="#0e353a" stroke-width="0.4"/>
<polygon points="645.1,473.2 663.8,477.2 664.7,434.6 646.4,430.5" fill="#35c5d7" stroke="#1d6c76" stroke-width="0.4"/>
<polygon points="638.8,483.5 645.1,473.2 646.4,430.5 640.3,441.1" fill="#30afc0" stroke="#1a606a" stroke-width="0.4"/>
<polygon points="771.0,608.7 754.8,626.1 791.3,632.5 808.2,615.4" fill="#1b3265" stroke="#0f1c38" stroke-width="0.4"/>
<polygon points="771.0,608.7 808.2,615.4 801.2,491.0 766.3,483.4" fill="#3665ce" stroke="#1e3871" stroke-width="0.4"/>
<polygon points="754.8,626.1 771.0,608.7 766.3,483.4 751.4,502.9" fill="#305ab8" stroke="#1a3265" stroke-width="0.4"/>
<polygon points="485.4,481.4 484.6,483.2 788.6,544.0 789.9,542.4" fill="#1a6069" stroke="#0e353a" stroke-width="0.4"/>
<polygon points="485.4,481.4 789.9,542.4 789.4,531.7 486.7,470.1" fill="#35c5d7" stroke="#1d6c76" stroke-width="0.4"/>
<polygon points="484.6,483.2 485.4,481.4 486.7,470.1 486.0,471.9" fill="#30afc0" stroke="#1a606a" stroke-width="0.4"/>
<polygon points="505.5,430.3 498.7,447.0 528.2,453.2 535.5,436.8" fill="#6c571a" stroke="#3b300e" stroke-width="0.4"/>
<polygon points="505.5,430.3 535.5,436.8 539.6,393.9 510.3,387.3" fill="#ddb235" stroke="#7a621d" stroke-width="0.4"/>
<polygon points="498.7,447.0 505.5,430.3 510.3,387.3 503.5,404.4" fill="#c59f30" stroke="#6c571a" stroke-width="0.4"/>
<polygon points="828.2,385.3 823.0,392.2 833.7,394.8 838.9,388.0" fill="#6c571a" stroke="#3b300e" stroke-width="0.4"/>
<polygon points="828.2,385.3 838.9,388.0 835.5,346.3 825.1,343.5" fill="#ddb235" stroke="#7a621d" stroke-width="0.4"/>
<polygon points="823.0,392.2 828.2,385.3 825.1,343.5 820.0,350.6" fill="#c59f30" stroke="#6c571a" stroke-width="0.4"/>
<polygon points="521.8,580.8 519.7,584.8 754.8,626.1 758.1,622.6" fill="#1b3265" stroke="#0f1c38" stroke-width="0.4"/>
<polygon points="521.8,580.8 758.1,622.6 755.0,520.2 531.8,474.5" fill="#3665ce" stroke="#1e3871" stroke-width="0.4"/>
<polygon points="519.7,584.8 521.8,580.8 531.8,474.5 529.7,478.9" fill="#305ab8" stroke="#1a3265" stroke-width="0.4"/>
<polygon points="639.3,587.5 630.5,600.0 656.8,604.7 666.0,592.4" fill="#1b3265" stroke="#0f1c38" stroke-width="0.4"/>
<polygon points="639.3,587.5 666.0,592.4 668.0,476.1 643.0,470.8" fill="#3665ce" stroke="#1e3871" stroke-width="0.4"/>
<polygon points="630.5,600.0 639.3,587.5 643.0,470.8 634.7,484.6" fill="#305ab8" stroke="#1a3265" stroke-width="0.4"/>
<polygon points="829.5,425.9 820.4,437.5 839.0,441.8 848.4,430.3" fill="#1a6069" stroke="#0e353a" stroke-width="0.4"/>
<polygon points="829.5,425.9 848.4,430.3 844.7,386.4 826.3,381.9" fill="#35c5d7" stroke="#1d6c76" stroke-width="0.4"/>
<polygon points="820.4,437.5 829.5,425.9 826.3,381.9 817.4,393.7" fill="#30afc0" stroke="#1a606a" stroke-width="0.4"/>
<polygon points="893.7,241.1 889.3,247.3 897.3,249.6 901.7,243.5" fill="#732b4f" stroke="#3f182b" stroke-width="0.4"/>
<polygon points="893.7,241.1 901.7,243.5 893.9,183.3 886.2,180.9" fill="#eb57a2" stroke="#813059" stroke-width="0.4"/>
<polygon points="889.3,247.3 893.7,241.1 886.2,180.9 882.0,187.1" fill="#d14e90" stroke="#732b4f" stroke-width="0.4"/>
<polygon points="560.2,277.7 558.8,281.2 563.9,282.5 565.3,279.0" fill="#732b4f" stroke="#3f182b" stroke-width="0.4"/>
<polygon points="560.2,277.7 565.3,279.0 568.8,238.2 563.7,236.8" fill="#eb57a2" stroke="#813059" stroke-width="0.4"/>
<polygon points="558.8,281.2 560.2,277.7 563.7,236.8 562.4,240.3" fill="#d14e90" stroke="#732b4f" stroke-width="0.4"/>
<polygon points="472.5,589.5 471.7,591.1 793.4,646.3 794.8,645.0" fill="#1a6069" stroke="#0e353a" stroke-width="0.4"/>
<polygon points="472.5,589.5 794.8,645.0 794.4,636.0 473.6,580.0" fill="#35c5d7" stroke="#1d6c76" stroke-width="0.4"/>
<polygon points="471.7,591.1 472.5,589.5 473.6,580.0 472.9,581.6" fill="#30afc0" stroke="#1a606a" stroke-width="0.4"/>
<polygon points="486.7,557.2 477.5,577.4 519.7,584.8 530.1,565.1" fill="#1b3265" stroke="#0f1c38" stroke-width="0.4"/>
<polygon points="486.7,557.2 530.1,565.1 541.8,435.0 501.6,426.4" fill="#3665ce" stroke="#1e3871" stroke-width="0.4"/>
<polygon points="477.5,577.4 486.7,557.2 501.6,426.4 492.6,448.7" fill="#305ab8" stroke="#1a3265" stroke-width="0.4"/>
<polygon points="943.5,360.5 787.0,541.9 789.9,542.4 946.9,361.4" fill="#1a6069" stroke="#0e353a" stroke-width="0.4"/>
<polygon points="943.5,360.5 946.9,361.4 945.1,349.3 941.7,348.4" fill="#35c5d7" stroke="#1d6c76" stroke-width="0.4"/>
<polygon points="787.0,541.9 943.5,360.5 941.7,348.4 786.5,531.1" fill="#30afc0" stroke="#1a606a" stroke-width="0.4"/>
<polygon points="751.9,586.3 745.0,594.2 761.1,597.2 768.1,589.4" fill="#681e1c" stroke="#39110f" stroke-width="0.4"/>
<polygon points="751.9,586.3 768.1,589.4 766.9,555.8 751.0,552.7" fill="#d53e3a" stroke="#752220" stroke-width="0.4"/>
<polygon points="745.0,594.2 751.9,586.3 751.0,552.7 744.3,560.8" fill="#be3734" stroke="#691e1d" stroke-width="0.4"/>
<polygon points="517.1,563.6 514.5,568.7 777.0,615.8 781.2,611.4" fill="#6c571a" stroke="#3b300e" stroke-width="0.4"/>
<polygon points="517.1,563.6 781.2,611.4 781.2,611.2 517.1,563.4" fill="#ddb235" stroke="#7a621d" stroke-width="0.4"/>
<polygon points="514.5,568.7 517.1,563.6 517.1,563.4 514.6,568.5" fill="#c59f30" stroke="#6c571a" stroke-width="0.4"/>
<polygon points="553.8,317.6 550.5,325.6 562.8,328.6 566.2,320.6" fill="#6c571a" stroke="#3b300e" stroke-width="0.4"/>
<polygon points="553.8,317.6 566.2,320.6 569.7,277.6 557.6,274.4" fill="#ddb235" stroke="#7a621d" stroke-width="0.4"/>
<polygon points="550.5,325.6 553.8,317.6 557.6,274.4 554.4,282.6" fill="#c59f30" stroke="#6c571a" stroke-width="0.4"/>
<polygon points="896.4,278.2 885.6,292.7 905.2,298.1 916.2,283.7" fill="#1a6069" stroke="#0e353a" stroke-width="0.4"/>
<polygon points="896.4,278.2 916.2,283.7 910.4,240.8 891.1,235.1" fill="#35c5d7" stroke="#1d6c76" stroke-width="0.4"/>
<polygon points="885.6,292.7 896.4,278.2 891.1,235.1 880.7,249.9" fill="#30afc0" stroke="#1a606a" stroke-width="0.4"/>
<polygon points="924.0,488.0 800.5,614.0 808.2,615.4 932.9,489.9" fill="#1b3265" stroke="#0f1c38" stroke-width="0.4"/>
<polygon points="924.0,488.0 932.9,489.9 918.2,376.1 909.9,373.9" fill="#3665ce" stroke="#1e3871" stroke-width="0.4"/>
<polygon points="800.5,614.0 924.0,488.0 909.9,373.9 795.1,510.9" fill="#305ab8" stroke="#1a3265" stroke-width="0.4"/>
<polygon points="648.5,569.0 637.0,585.3 670.4,591.4 682.5,575.3" fill="#1f653e" stroke="#113822" stroke-width="0.4"/>
<polygon points="648.5,569.0 682.5,575.3 682.6,573.7 648.5,567.4" fill="#3fce7f" stroke="#237146" stroke-width="0.4"/>
<polygon points="637.0,585.3 648.5,569.0 648.5,567.4 637.1,583.8" fill="#39b871" stroke="#1f653e" stroke-width="0.4"/>
<polygon points="836.8,544.1 823.6,558.2 850.0,563.5 863.7,549.6" fill="#1b3265" stroke="#0f1c38" stroke-width="0.4"/>
<polygon points="836.8,544.1 863.7,549.6 853.1,429.1 827.9,423.2" fill="#3665ce" stroke="#1e3871" stroke-width="0.4"/>
<polygon points="823.6,558.2 836.8,544.1 827.9,423.2 815.7,438.6" fill="#305ab8" stroke="#1a3265" stroke-width="0.4"/>
<polygon points="559.6,550.5 554.8,559.2 572.6,562.5 577.6,553.9" fill="#681e1c" stroke="#39110f" stroke-width="0.4"/>
<polygon points="559.6,550.5 577.6,553.9 579.9,519.3 562.2,515.8" fill="#d53e3a" stroke="#752220" stroke-width="0.4"/>
<polygon points="554.8,559.2 559.6,550.5 562.2,515.8 557.4,524.8" fill="#be3734" stroke="#691e1d" stroke-width="0.4"/>
<polygon points="546.3,359.2 540.7,372.7 562.3,377.7 568.3,364.4" fill="#1a6069" stroke="#0e353a" stroke-width="0.4"/>
<polygon points="546.3,359.2 568.3,364.4 571.9,318.9 550.5,313.6" fill="#35c5d7" stroke="#1d6c76" stroke-width="0.4"/>
<polygon points="540.7,372.7 546.3,359.2 550.5,313.6 544.9,327.3" fill="#30afc0" stroke="#1a606a" stroke-width="0.4"/>
<polygon points="601.3,155.5 598.5,162.7 607.8,165.4 610.7,158.3" fill="#732b4f" stroke="#3f182b" stroke-width="0.4"/>
<polygon points="601.3,155.5 610.7,158.3 614.4,96.8 605.4,94.0" fill="#eb57a2" stroke="#813059" stroke-width="0.4"/>
<polygon points="598.5,162.7 601.3,155.5 605.4,94.0 602.7,101.3" fill="#d14e90" stroke="#732b4f" stroke-width="0.4"/>
<polygon points="960.5,478.0 791.8,644.5 794.8,645.0 964.2,478.8" fill="#1a6069" stroke="#0e353a" stroke-width="0.4"/>
<polygon points="960.5,478.0 964.2,478.8 962.6,468.4 959.0,467.6" fill="#35c5d7" stroke="#1d6c76" stroke-width="0.4"/>
<polygon points="791.8,644.5 960.5,478.0 959.0,467.6 791.4,635.5" fill="#30afc0" stroke="#1a606a" stroke-width="0.4"/>
<polygon points="899.7,318.6 883.0,340.0 913.1,348.0 930.3,326.9" fill="#6c571a" stroke="#3b300e" stroke-width="0.4"/>
<polygon points="899.7,318.6 930.3,326.9 923.9,281.5 894.2,273.0" fill="#ddb235" stroke="#7a621d" stroke-width="0.4"/>
<polygon points="883.0,340.0 899.7,318.6 894.2,273.0 878.1,294.9" fill="#c59f30" stroke="#6c571a" stroke-width="0.4"/>
<polygon points="892.7,479.6 771.8,609.7 781.2,611.4 903.5,482.1" fill="#6c571a" stroke="#3b300e" stroke-width="0.4"/>
<polygon points="892.7,479.6 903.5,482.1 903.5,481.9 892.6,479.4" fill="#ddb235" stroke="#7a621d" stroke-width="0.4"/>
<polygon points="771.8,609.7 892.7,479.6 892.6,479.4 771.8,609.5" fill="#c59f30" stroke="#6c571a" stroke-width="0.4"/>
<polygon points="797.6,259.6 795.5,262.9 799.9,264.1 802.0,260.8" fill="#732b4f" stroke="#3f182b" stroke-width="0.4"/>
<polygon points="797.6,259.6 802.0,260.8 798.8,211.0 794.5,209.7" fill="#eb57a2" stroke="#813059" stroke-width="0.4"/>
<polygon points="795.5,262.9 797.6,259.6 794.5,209.7 792.5,213.1" fill="#d14e90" stroke="#732b4f" stroke-width="0.4"/>
<polygon points="574.6,263.7 485.4,481.4 488.7,482.1 578.8,264.8" fill="#1a6069" stroke="#0e353a" stroke-width="0.4"/>
<polygon points="574.6,263.7 578.8,264.8 579.7,252.2 575.6,251.1" fill="#35c5d7" stroke="#1d6c76" stroke-width="0.4"/>
<polygon points="485.4,481.4 574.6,263.7 575.6,251.1 486.7,470.1" fill="#30afc0" stroke="#1a606a" stroke-width="0.4"/>
<polygon points="730.2,240.8 728.4,244.2 733.0,245.4 734.9,242.1" fill="#732b4f" stroke="#3f182b" stroke-width="0.4"/>
<polygon points="730.2,240.8 734.9,242.1 733.7,191.9 729.3,190.6" fill="#eb57a2" stroke="#813059" stroke-width="0.4"/>
<polygon points="728.4,244.2 730.2,240.8 729.3,190.6 727.4,194.0" fill="#d14e90" stroke="#732b4f" stroke-width="0.4"/>
<polygon points="593.6,192.6 586.7,209.8 609.7,216.2 616.9,199.2" fill="#1a6069" stroke="#0e353a" stroke-width="0.4"/>
<polygon points="593.6,192.6 616.9,199.2 619.4,155.1 596.7,148.5" fill="#35c5d7" stroke="#1d6c76" stroke-width="0.4"/>
<polygon points="586.7,209.8 593.6,192.6 596.7,148.5 590.0,165.8" fill="#30afc0" stroke="#1a606a" stroke-width="0.4"/>
<polygon points="531.8,482.3 524.0,498.9 555.1,505.1 563.5,488.7" fill="#1b3265" stroke="#0f1c38" stroke-width="0.4"/>
<polygon points="531.8,482.3 563.5,488.7 573.0,363.0 543.6,356.0" fill="#3665ce" stroke="#1e3871" stroke-width="0.4"/>
<polygon points="524.0,498.9 531.8,482.3 543.6,356.0 536.1,374.0" fill="#305ab8" stroke="#1a3265" stroke-width="0.4"/>
<polygon points="683.6,506.3 665.2,533.2 714.9,543.0 734.9,516.8" fill="#6c571a" stroke="#3b300e" stroke-width="0.4"/>
<polygon points="683.6,506.3 734.9,516.8 734.9,513.5 683.7,503.0" fill="#ddb235" stroke="#7a621d" stroke-width="0.4"/>
<polygon points="665.2,533.2 683.6,506.3 683.7,503.0 665.2,530.0" fill="#c59f30" stroke="#6c571a" stroke-width="0.4"/>
<polygon points="570.2,377.3 477.2,580.6 791.4,635.5 959.0,467.6" fill="#090c17" stroke="#05070d" stroke-width="0.4"/>
<polygon points="570.2,377.3 959.0,467.6 958.5,464.1 570.4,373.6" fill="#11192f" stroke="#090e1a" stroke-width="0.4"/>
<polygon points="477.2,580.6 570.2,377.3 570.4,373.6 477.5,577.4" fill="#10162a" stroke="#090c17" stroke-width="0.4"/>
<polygon points="555.9,405.5 486.7,557.2 495.8,558.9 566.8,407.9" fill="#1b3265" stroke="#0f1c38" stroke-width="0.4"/>
<polygon points="555.9,405.5 566.8,407.9 576.0,288.5 565.9,285.9" fill="#3665ce" stroke="#1e3871" stroke-width="0.4"/>
<polygon points="486.7,557.2 555.9,405.5 565.9,285.9 499.1,448.8" fill="#305ab8" stroke="#1a3265" stroke-width="0.4"/>
<polygon points="799.4,299.4 796.0,304.5 803.3,306.5 806.7,301.3" fill="#6c571a" stroke="#3b300e" stroke-width="0.4"/>
<polygon points="799.4,299.4 806.7,301.3 804.0,260.2 796.8,258.2" fill="#ddb235" stroke="#7a621d" stroke-width="0.4"/>
<polygon points="796.0,304.5 799.4,299.4 796.8,258.2 793.5,263.5" fill="#c59f30" stroke="#6c571a" stroke-width="0.4"/>
<polygon points="914.4,453.8 889.9,480.3 932.9,489.9 958.5,464.1" fill="#1b3265" stroke="#0f1c38" stroke-width="0.4"/>
<polygon points="914.4,453.8 958.5,464.1 938.3,324.7 897.4,313.5" fill="#3665ce" stroke="#1e3871" stroke-width="0.4"/>
<polygon points="889.9,480.3 914.4,453.8 897.4,313.5 875.3,342.2" fill="#305ab8" stroke="#1a3265" stroke-width="0.4"/>
<polygon points="584.6,470.8 496.8,636.6 783.9,682.9 932.7,543.4" fill="#090c17" stroke="#05070d" stroke-width="0.4"/>
<polygon points="584.6,470.8 932.7,543.4 925.6,486.1 588.5,410.4" fill="#11192f" stroke="#090e1a" stroke-width="0.4"/>
<polygon points="496.8,636.6 584.6,470.8 588.5,410.4 502.2,584.0" fill="#10162a" stroke="#090c17" stroke-width="0.4"/>
<polygon points="730.2,280.8 727.1,286.1 734.7,288.1 737.8,282.8" fill="#6c571a" stroke="#3b300e" stroke-width="0.4"/>
<polygon points="730.2,280.8 737.8,282.8 736.8,241.4 729.4,239.3" fill="#ddb235" stroke="#7a621d" stroke-width="0.4"/>
<polygon points="727.1,286.1 730.2,280.8 729.4,239.3 726.4,244.8" fill="#c59f30" stroke="#6c571a" stroke-width="0.4"/>
<polygon points="841.1,483.5 832.0,493.9 850.1,497.8 859.3,487.5" fill="#681e1c" stroke="#39110f" stroke-width="0.4"/>
<polygon points="841.1,483.5 859.3,487.5 856.1,451.1 838.2,446.9" fill="#d53e3a" stroke="#752220" stroke-width="0.4"/>
<polygon points="832.0,493.9 841.1,483.5 838.2,446.9 829.4,457.6" fill="#be3734" stroke="#691e1d" stroke-width="0.4"/>
<polygon points="586.0,233.6 575.6,259.0 611.1,268.3 622.3,243.4" fill="#6c571a" stroke="#3b300e" stroke-width="0.4"/>
<polygon points="586.0,233.6 622.3,243.4 624.6,196.5 589.4,186.6" fill="#ddb235" stroke="#7a621d" stroke-width="0.4"/>
<polygon points="575.6,259.0 586.0,233.6 589.4,186.6 579.2,212.4" fill="#c59f30" stroke="#6c571a" stroke-width="0.4"/>
<polygon points="593.2,412.4 517.1,563.6 527.8,565.6 606.0,415.3" fill="#6c571a" stroke="#3b300e" stroke-width="0.4"/>
<polygon points="593.2,412.4 606.0,415.3 606.0,415.1 593.2,412.2" fill="#ddb235" stroke="#7a621d" stroke-width="0.4"/>
<polygon points="517.1,563.6 593.2,412.4 593.2,412.2 517.1,563.4" fill="#c59f30" stroke="#6c571a" stroke-width="0.4"/>
<polygon points="564.8,387.2 472.5,589.5 476.0,590.1 569.3,388.3" fill="#1a6069" stroke="#0e353a" stroke-width="0.4"/>
<polygon points="564.8,387.2 569.3,388.3 570.2,377.3 565.6,376.2" fill="#35c5d7" stroke="#1d6c76" stroke-width="0.4"/>
<polygon points="472.5,589.5 564.8,387.2 565.6,376.2 473.6,580.0" fill="#30afc0" stroke="#1a606a" stroke-width="0.4"/>
<polygon points="624.9,578.8 557.4,679.2 760.0,710.2 856.1,620.9" fill="#090c17" stroke="#05070d" stroke-width="0.4"/>
<polygon points="624.9,578.8 856.1,620.9 851.3,560.8 627.3,516.3" fill="#11192f" stroke="#090e1a" stroke-width="0.4"/>
<polygon points="557.4,679.2 624.9,578.8 627.3,516.3 561.4,622.8" fill="#10162a" stroke="#090c17" stroke-width="0.4"/>
<polygon points="575.7,260.8 574.6,263.7 946.9,361.4 949.0,359.0" fill="#1a6069" stroke="#0e353a" stroke-width="0.4"/>
<polygon points="575.7,260.8 949.0,359.0 947.2,346.9 576.7,248.1" fill="#35c5d7" stroke="#1d6c76" stroke-width="0.4"/>
<polygon points="574.6,263.7 575.7,260.8 576.7,248.1 575.6,251.1" fill="#30afc0" stroke="#1a606a" stroke-width="0.4"/>
<polygon points="816.7,431.1 812.0,437.0 909.1,459.5 914.4,453.8" fill="#1b3265" stroke="#0f1c38" stroke-width="0.4"/>
<polygon points="816.7,431.1 914.4,453.8 900.3,337.4 808.8,313.1" fill="#3665ce" stroke="#1e3871" stroke-width="0.4"/>
<polygon points="812.0,437.0 816.7,431.1 808.8,313.1 804.5,319.4" fill="#305ab8" stroke="#1a3265" stroke-width="0.4"/>
<polygon points="741.0,358.7 736.9,365.1 799.0,380.4 803.5,374.2" fill="#1b3265" stroke="#0f1c38" stroke-width="0.4"/>
<polygon points="741.0,358.7 803.5,374.2 799.6,310.6 739.4,294.6" fill="#3665ce" stroke="#1e3871" stroke-width="0.4"/>
<polygon points="736.9,365.1 741.0,358.7 739.4,294.6 735.5,301.2" fill="#305ab8" stroke="#1a3265" stroke-width="0.4"/>
<polygon points="809.6,425.1 799.5,438.3 809.2,440.6 819.6,427.4" fill="#1a6069" stroke="#0e353a" stroke-width="0.4"/>
<polygon points="809.6,425.1 819.6,427.4 810.6,297.0 801.4,294.6" fill="#35c5d7" stroke="#1d6c76" stroke-width="0.4"/>
<polygon points="799.5,438.3 809.6,425.1 801.4,294.6 792.1,308.7" fill="#30afc0" stroke="#1a606a" stroke-width="0.4"/>
<polygon points="663.2,681.5 624.6,726.5 732.3,741.9 778.4,699.5" fill="#090c17" stroke="#05070d" stroke-width="0.4"/>
<polygon points="663.2,681.5 778.4,699.5 776.0,636.6 664.3,617.2" fill="#11192f" stroke="#090e1a" stroke-width="0.4"/>
<polygon points="624.6,726.5 663.2,681.5 664.3,617.2 626.9,665.7" fill="#10162a" stroke="#090c17" stroke-width="0.4"/>
<polygon points="734.6,407.5 725.4,421.3 735.6,423.6 744.9,409.9" fill="#1a6069" stroke="#0e353a" stroke-width="0.4"/>
<polygon points="734.6,407.5 744.9,409.9 741.5,278.4 731.9,275.8" fill="#35c5d7" stroke="#1d6c76" stroke-width="0.4"/>
<polygon points="725.4,421.3 734.6,407.5 731.9,275.8 723.5,290.5" fill="#30afc0" stroke="#1a606a" stroke-width="0.4"/>
<polygon points="623.3,435.6 616.8,447.3 637.0,451.7 643.8,440.1" fill="#681e1c" stroke="#39110f" stroke-width="0.4"/>
<polygon points="623.3,435.6 643.8,440.1 645.0,402.5 624.9,397.8" fill="#d53e3a" stroke="#752220" stroke-width="0.4"/>
<polygon points="616.8,447.3 623.3,435.6 624.9,397.8 618.5,409.9" fill="#be3734" stroke="#691e1d" stroke-width="0.4"/>
<polygon points="684.0,767.3 666.0,784.5 714.5,790.7 734.0,774.0" fill="#1a6069" stroke="#0e353a" stroke-width="0.4"/>
<polygon points="684.0,767.3 734.0,774.0 732.9,707.5 684.5,700.2" fill="#35c5d7" stroke="#1d6c76" stroke-width="0.4"/>
<polygon points="666.0,784.5 684.0,767.3 684.5,700.2 667.0,719.1" fill="#30afc0" stroke="#1a606a" stroke-width="0.4"/>
<polygon points="597.0,404.8 593.2,412.4 903.5,482.1 909.6,475.7" fill="#6c571a" stroke="#3b300e" stroke-width="0.4"/>
<polygon points="597.0,404.8 909.6,475.7 909.6,475.4 597.1,404.6" fill="#ddb235" stroke="#7a621d" stroke-width="0.4"/>
<polygon points="593.2,412.4 597.0,404.8 597.1,404.6 593.2,412.2" fill="#c59f30" stroke="#6c571a" stroke-width="0.4"/>
<polygon points="570.4,373.6 555.9,405.5 607.5,417.0 623.7,386.0" fill="#1b3265" stroke="#0f1c38" stroke-width="0.4"/>
<polygon points="570.4,373.6 623.7,386.0 630.2,240.7 581.6,227.5" fill="#3665ce" stroke="#1e3871" stroke-width="0.4"/>
<polygon points="555.9,405.5 570.4,373.6 581.6,227.5 567.9,261.5" fill="#305ab8" stroke="#1a3265" stroke-width="0.4"/>
<polygon points="623.7,386.0 620.2,392.7 727.9,417.6 732.0,411.3" fill="#1b3265" stroke="#0f1c38" stroke-width="0.4"/>
<polygon points="623.7,386.0 732.0,411.3 729.8,292.1 629.1,265.3" fill="#3665ce" stroke="#1e3871" stroke-width="0.4"/>
<polygon points="620.2,392.7 623.7,386.0 629.1,265.3 625.8,272.3" fill="#305ab8" stroke="#1a3265" stroke-width="0.4"/>
<polygon points="566.0,384.5 564.8,387.2 964.2,478.8 966.4,476.6" fill="#1a6069" stroke="#0e353a" stroke-width="0.4"/>
<polygon points="566.0,384.5 966.4,476.6 964.9,466.2 566.9,373.4" fill="#35c5d7" stroke="#1d6c76" stroke-width="0.4"/>
<polygon points="564.8,387.2 566.0,384.5 566.9,373.4 565.6,376.2" fill="#30afc0" stroke="#1a606a" stroke-width="0.4"/>
<text x="14" y="26" font-family="monospace" font-size="15" fill="#8fa0bd">CROWN — hero view (from below, off the approach)</text>
<text x="14" y="46" font-family="monospace" font-size="11" fill="#5f6f8d">63 drawn / 63 selected / 4267 in map  •  x[-784,784] y[7816,9392] z[18304,20992]</text>
</svg>