<svg xmlns="http://www.w3.org/2000/svg" width="1400" height="1000" viewBox="0 0 1400 1000">
<defs><linearGradient id="sky" x1="0" y1="0" x2="0" y2="1"><stop offset="0" stop-color="#050a18"/><stop offset="0.6" stop-color="#0d1330"/><stop offset="1" stop-color="#241a3a"/></linearGradient></defs>
<rect width="1400" height="1000" fill="url(#sky)"/>
<polygon points="630.9,487.8 631.0,487.9 769.0,487.9 769.1,487.8" fill="#e0c951" stroke="#7b6f2d" stroke-width="0.4"/>
<polygon points="630.9,487.8 769.1,487.8 769.1,482.2 630.9,482.2" fill="#ffe45c" stroke="#8c7d33" stroke-width="0.4"/>
<polygon points="648.9,533.0 751.1,533.0 751.0,482.0 649.0,482.0" fill="#6b4bb0" stroke="#3b2961" stroke-width="0.4"/>
<polygon points="697.2,496.0 697.2,496.1 702.8,496.1 702.8,496.0" fill="#a22d28" stroke="#591916" stroke-width="0.4"/>
<polygon points="697.2,496.0 702.8,496.0 702.8,489.7 697.2,489.7" fill="#b8332e" stroke="#651c19" stroke-width="0.4"/>
<polygon points="688.6,501.7 688.7,501.8 711.3,501.8 711.4,501.7" fill="#e0c951" stroke="#7b6f2d" stroke-width="0.4"/>
<polygon points="688.6,501.7 711.4,501.7 711.4,496.0 688.6,496.0" fill="#ffe45c" stroke="#8c7d33" stroke-width="0.4"/>
<polygon points="675.1,530.2 724.9,530.2 724.9,501.7 675.1,501.7" fill="#b0621a" stroke="#61360e" stroke-width="0.4"/>
<polygon points="630.7,533.1 648.0,533.1 648.1,481.2 630.8,481.2" fill="#6b4bb0" stroke="#3b2961" stroke-width="0.4"/>
<polygon points="648.0,533.1 649.1,533.0 649.3,482.2 648.1,481.2" fill="#6d4db4" stroke="#3c2a63" stroke-width="0.4"/>
<polygon points="752.0,533.1 769.3,533.1 769.2,481.2 751.9,481.2" fill="#6b4bb0" stroke="#3b2961" stroke-width="0.4"/>
<polygon points="750.9,533.0 752.0,533.1 751.9,481.2 750.7,482.2" fill="#6748a9" stroke="#39285d" stroke-width="0.4"/>
<polygon points="675.1,530.2 677.2,530.2 677.2,501.7 675.1,501.7" fill="#ffe45c" stroke="#8c7d33" stroke-width="0.4"/>
<polygon points="677.2,530.2 677.2,530.2 677.2,501.7 677.2,501.7" fill="#ffe95e" stroke="#8c8034" stroke-width="0.4"/>
<polygon points="722.8,530.2 724.9,530.2 724.9,501.7 722.8,501.7" fill="#ffe45c" stroke="#8c7d33" stroke-width="0.4"/>
<polygon points="722.8,530.2 722.8,530.2 722.8,501.7 722.8,501.7" fill="#f5db58" stroke="#877830" stroke-width="0.4"/>
<polygon points="677.2,503.8 677.2,503.8 722.8,503.8 722.8,503.8" fill="#e0c951" stroke="#7b6f2d" stroke-width="0.4"/>
<polygon points="677.2,503.8 722.8,503.8 722.8,501.7 677.2,501.7" fill="#ffe45c" stroke="#8c7d33" stroke-width="0.4"/>
<polygon points="677.2,530.2 722.8,530.2 722.8,528.0 677.2,528.0" fill="#ffe45c" stroke="#8c7d33" stroke-width="0.4"/>
<polygon points="694.3,523.0 705.7,523.0 705.7,508.8 694.3,508.8" fill="#b8332e" stroke="#651c19" stroke-width="0.4"/>
<polygon points="660.7,517.2 670.1,517.2 670.1,513.6 660.7,513.6" fill="#ffe45c" stroke="#8c7d33" stroke-width="0.4"/>
<polygon points="670.1,517.2 670.4,517.3 670.4,513.8 670.1,513.6" fill="#ffe95e" stroke="#8c8034" stroke-width="0.4"/>
<polygon points="729.9,517.2 739.3,517.2 739.3,513.6 729.9,513.6" fill="#ffe45c" stroke="#8c7d33" stroke-width="0.4"/>
<polygon points="729.6,517.3 729.9,517.2 729.9,513.6 729.6,513.8" fill="#f5db58" stroke="#877830" stroke-width="0.4"/>
<polygon points="660.3,533.1 670.4,533.1 670.4,530.9 660.3,530.9" fill="#ffe45c" stroke="#8c7d33" stroke-width="0.4"/>
<polygon points="670.4,533.1 670.8,533.0 670.8,530.9 670.4,530.9" fill="#ffe95e" stroke="#8c8034" stroke-width="0.4"/>
<polygon points="729.6,533.1 739.7,533.1 739.7,530.9 729.6,530.9" fill="#ffe45c" stroke="#8c7d33" stroke-width="0.4"/>
<polygon points="729.2,533.0 729.6,533.1 729.6,530.9 729.2,530.9" fill="#f5db58" stroke="#877830" stroke-width="0.4"/>
<polygon points="661.8,530.9 669.0,530.9 669.0,517.2 661.8,517.2" fill="#b8332e" stroke="#651c19" stroke-width="0.4"/>
<polygon points="669.0,530.9 669.3,530.9 669.3,517.3 669.0,517.2" fill="#bc342f" stroke="#671d1a" stroke-width="0.4"/>
<polygon points="731.0,530.9 738.2,530.9 738.2,517.2 731.0,517.2" fill="#b8332e" stroke="#651c19" stroke-width="0.4"/>
<polygon points="730.7,530.9 731.0,530.9 731.0,517.2 730.7,517.3" fill="#b1312c" stroke="#611b18" stroke-width="0.4"/>
<polygon points="674.2,531.7 725.8,531.7 725.8,530.3 674.2,530.3" fill="#c9a52e" stroke="#6f5b19" stroke-width="0.4"/>
<polygon points="670.3,533.3 729.7,533.3 729.7,531.8 670.3,531.8" fill="#c9a52e" stroke="#6f5b19" stroke-width="0.4"/>
<polygon points="662.7,517.1 667.1,517.1 667.1,513.4 662.7,513.4" fill="#ffe45c" stroke="#8c7d33" stroke-width="0.4"/>
<polygon points="667.1,517.1 667.5,517.2 667.6,513.6 667.1,513.4" fill="#ffe95e" stroke="#8c8034" stroke-width="0.4"/>
<polygon points="732.9,517.1 737.3,517.1 737.3,513.4 732.9,513.4" fill="#ffe45c" stroke="#8c7d33" stroke-width="0.4"/>
<polygon points="732.5,517.2 732.9,517.1 732.9,513.4 732.4,513.6" fill="#f5db58" stroke="#877830" stroke-width="0.4"/>
<polygon points="692.7,530.3 707.3,530.3 707.3,529.5 692.7,529.5" fill="#2f9e63" stroke="#1a5736" stroke-width="0.4"/>
<polygon points="659.7,516.9 669.3,516.9 669.3,513.2 659.7,513.2" fill="#ffe45c" stroke="#8c7d33" stroke-width="0.4"/>
<polygon points="669.3,516.9 669.7,517.1 669.7,513.4 669.3,513.2" fill="#ffe95e" stroke="#8c8034" stroke-width="0.4"/>
<polygon points="730.7,516.9 740.3,516.9 740.3,513.2 730.7,513.2" fill="#ffe45c" stroke="#8c7d33" stroke-width="0.4"/>
<polygon points="730.3,517.1 730.7,516.9 730.7,513.2 730.3,513.4" fill="#f5db58" stroke="#877830" stroke-width="0.4"/>
<polygon points="659.2,533.2 669.6,533.2 669.6,531.0 659.2,531.0" fill="#ffe45c" stroke="#8c7d33" stroke-width="0.4"/>
<polygon points="669.6,533.2 670.0,533.2 670.0,531.0 669.6,531.0" fill="#ffe95e" stroke="#8c8034" stroke-width="0.4"/>
<polygon points="730.4,533.2 740.8,533.2 740.8,531.0 730.4,531.0" fill="#ffe45c" stroke="#8c7d33" stroke-width="0.4"/>
<polygon points="730.0,533.2 730.4,533.2 730.4,531.0 730.0,531.0" fill="#f5db58" stroke="#877830" stroke-width="0.4"/>
<polygon points="660.8,531.0 668.2,531.0 668.2,517.0 660.8,517.0" fill="#b8332e" stroke="#651c19" stroke-width="0.4"/>
<polygon points="668.2,531.0 668.5,531.0 668.5,517.1 668.2,517.0" fill="#bc342f" stroke="#671d1a" stroke-width="0.4"/>
<polygon points="731.8,531.0 739.2,531.0 739.2,517.0 731.8,517.0" fill="#b8332e" stroke="#651c19" stroke-width="0.4"/>
<polygon points="731.5,531.0 731.8,531.0 731.8,517.0 731.5,517.1" fill="#b1312c" stroke="#611b18" stroke-width="0.4"/>
<polygon points="671.0,533.3 729.0,533.3 729.0,533.2 671.0,533.2" fill="#7d6620" stroke="#453812" stroke-width="0.4"/>
<polygon points="661.7,516.8 666.2,516.8 666.2,513.0 661.7,513.0" fill="#ffe45c" stroke="#8c7d33" stroke-width="0.4"/>
<polygon points="666.2,516.8 666.7,516.9 666.7,513.2 666.2,513.0" fill="#ffe95e" stroke="#8c8034" stroke-width="0.4"/>
<polygon points="733.8,516.8 738.3,516.8 738.3,513.0 733.8,513.0" fill="#ffe45c" stroke="#8c7d33" stroke-width="0.4"/>
<polygon points="733.3,516.9 733.8,516.8 733.8,513.0 733.3,513.2" fill="#f5db58" stroke="#877830" stroke-width="0.4"/>
<polygon points="658.6,516.7 668.5,516.7 668.5,512.9 658.6,512.9" fill="#ffe45c" stroke="#8c7d33" stroke-width="0.4"/>
<polygon points="668.5,516.7 668.8,516.8 668.8,513.0 668.5,512.9" fill="#ffe95e" stroke="#8c8034" stroke-width="0.4"/>
<polygon points="731.5,516.7 741.4,516.7 741.4,512.9 731.5,512.9" fill="#ffe45c" stroke="#8c7d33" stroke-width="0.4"/>
<polygon points="731.2,516.8 731.5,516.7 731.5,512.9 731.2,513.0" fill="#f5db58" stroke="#877830" stroke-width="0.4"/>
<polygon points="658.1,533.4 668.8,533.4 668.8,531.1 658.1,531.1" fill="#ffe45c" stroke="#8c7d33" stroke-width="0.4"/>
<polygon points="668.8,533.4 669.2,533.3 669.2,531.1 668.8,531.1" fill="#ffe95e" stroke="#8c8034" stroke-width="0.4"/>
<polygon points="731.2,533.4 741.9,533.4 741.9,531.1 731.2,531.1" fill="#ffe45c" stroke="#8c7d33" stroke-width="0.4"/>
<polygon points="730.8,533.3 731.2,533.4 731.2,531.1 730.8,531.1" fill="#f5db58" stroke="#877830" stroke-width="0.4"/>
<polygon points="659.7,531.1 667.3,531.1 667.4,516.7 659.8,516.7" fill="#b8332e" stroke="#651c19" stroke-width="0.4"/>
<polygon points="667.3,531.1 667.6,531.1 667.7,516.8 667.4,516.7" fill="#bc342f" stroke="#671d1a" stroke-width="0.4"/>
<polygon points="732.7,531.1 740.3,531.1 740.2,516.7 732.6,516.7" fill="#b8332e" stroke="#651c19" stroke-width="0.4"/>
<polygon points="732.4,531.1 732.7,531.1 732.6,516.7 732.3,516.8" fill="#b1312c" stroke="#611b18" stroke-width="0.4"/>
<polygon points="630.6,533.4 633.6,533.4 633.7,512.8 630.7,512.8" fill="#ffe45c" stroke="#8c7d33" stroke-width="0.4"/>
<polygon points="633.6,533.4 633.9,533.4 634.0,512.9 633.7,512.8" fill="#ffe95e" stroke="#8c8034" stroke-width="0.4"/>
<polygon points="766.4,533.4 769.4,533.4 769.3,512.8 766.3,512.8" fill="#ffe45c" stroke="#8c7d33" stroke-width="0.4"/>
<polygon points="766.1,533.4 766.4,533.4 766.3,512.8 766.0,512.9" fill="#f5db58" stroke="#877830" stroke-width="0.4"/>
<polygon points="684.8,533.4 715.2,533.4 715.2,533.3 684.8,533.3" fill="#7d6620" stroke="#453812" stroke-width="0.4"/>
<polygon points="616.5,479.6 630.9,487.8 632.3,487.8 618.2,479.6" fill="#e0c951" stroke="#7b6f2d" stroke-width="0.4"/>
<polygon points="616.5,479.6 618.2,479.6 618.3,472.8 616.5,472.8" fill="#ffe45c" stroke="#8c7d33" stroke-width="0.4"/>
<polygon points="618.2,479.6 632.3,487.8 632.3,482.2 618.3,472.8" fill="#ffe95e" stroke="#8c8034" stroke-width="0.4"/>
<polygon points="781.8,479.6 767.7,487.8 769.1,487.8 783.5,479.6" fill="#e0c951" stroke="#7b6f2d" stroke-width="0.4"/>
<polygon points="781.8,479.6 783.5,479.6 783.5,472.8 781.7,472.8" fill="#ffe45c" stroke="#8c7d33" stroke-width="0.4"/>
<polygon points="767.7,487.8 781.8,479.6 781.7,472.8 767.7,482.2" fill="#f5db58" stroke="#877830" stroke-width="0.4"/>
<polygon points="620.1,534.0 624.3,534.0 624.5,474.2 620.3,474.2" fill="#6b4bb0" stroke="#3b2961" stroke-width="0.4"/>
<polygon points="624.3,534.0 634.3,533.1 634.5,481.2 624.5,474.2" fill="#6d4db4" stroke="#3c2a63" stroke-width="0.4"/>
<polygon points="775.7,534.0 779.9,534.0 779.7,474.2 775.5,474.2" fill="#6b4bb0" stroke="#3b2961" stroke-width="0.4"/>
<polygon points="765.7,533.1 775.7,534.0 775.5,474.2 765.5,481.2" fill="#6748a9" stroke="#39285d" stroke-width="0.4"/>
<polygon points="628.7,530.5 629.1,530.5 629.1,512.4 628.7,512.4" fill="#7d6620" stroke="#453812" stroke-width="0.4"/>
<polygon points="629.1,530.5 631.0,530.4 631.0,512.8 629.1,512.4" fill="#806821" stroke="#463912" stroke-width="0.4"/>
<polygon points="770.9,530.5 771.3,530.5 771.3,512.4 770.9,512.4" fill="#7d6620" stroke="#453812" stroke-width="0.4"/>
<polygon points="769.0,530.4 770.9,530.5 770.9,512.4 769.0,512.8" fill="#78621f" stroke="#423611" stroke-width="0.4"/>
<polygon points="628.4,512.4 658.3,512.4 658.3,509.2 628.5,509.2" fill="#ffe45c" stroke="#8c7d33" stroke-width="0.4"/>
<polygon points="658.3,512.4 659.8,512.9 659.8,509.8 658.3,509.2" fill="#ffe95e" stroke="#8c8034" stroke-width="0.4"/>
<polygon points="741.7,512.4 771.6,512.4 771.5,509.2 741.7,509.2" fill="#ffe45c" stroke="#8c7d33" stroke-width="0.4"/>
<polygon points="740.2,512.9 741.7,512.4 741.7,509.2 740.2,509.8" fill="#f5db58" stroke="#877830" stroke-width="0.4"/>
<polygon points="641.9,533.5 669.8,533.5 669.8,533.4 641.9,533.4" fill="#7d6620" stroke="#453812" stroke-width="0.4"/>
<polygon points="669.8,533.5 669.9,533.5 669.9,533.4 669.8,533.4" fill="#806821" stroke="#463912" stroke-width="0.4"/>
<polygon points="730.2,533.5 758.1,533.5 758.1,533.4 730.2,533.4" fill="#7d6620" stroke="#453812" stroke-width="0.4"/>
<polygon points="730.1,533.5 730.2,533.5 730.2,533.4 730.1,533.4" fill="#78621f" stroke="#423611" stroke-width="0.4"/>
<polygon points="659.9,516.3 664.7,516.3 664.7,512.4 660.0,512.4" fill="#ffe45c" stroke="#8c7d33" stroke-width="0.4"/>
<polygon points="664.7,516.3 665.8,516.7 665.8,512.9 664.7,512.4" fill="#ffe95e" stroke="#8c8034" stroke-width="0.4"/>
<polygon points="735.3,516.3 740.1,516.3 740.0,512.4 735.3,512.4" fill="#ffe45c" stroke="#8c7d33" stroke-width="0.4"/>
<polygon points="734.2,516.7 735.3,516.3 735.3,512.4 734.2,512.9" fill="#f5db58" stroke="#877830" stroke-width="0.4"/>
<polygon points="672.1,533.5 684.5,533.5 684.5,533.4 672.1,533.4" fill="#7d6620" stroke="#453812" stroke-width="0.4"/>
<polygon points="715.5,533.5 727.9,533.5 727.9,533.4 715.5,533.4" fill="#7d6620" stroke="#453812" stroke-width="0.4"/>
<polygon points="684.3,533.6 686.6,533.6 686.6,533.5 684.3,533.5" fill="#7d6620" stroke="#453812" stroke-width="0.4"/>
<polygon points="713.4,533.6 715.7,533.6 715.7,533.5 713.4,533.5" fill="#7d6620" stroke="#453812" stroke-width="0.4"/>
<polygon points="618.0,535.9 782.0,535.9 782.0,534.1 618.0,534.1" fill="#131b33" stroke="#0a0f1c" stroke-width="0.4"/>
<polygon points="689.0,533.6 711.0,533.6 711.0,532.0 689.0,532.0" fill="#7d6620" stroke="#453812" stroke-width="0.4"/>
<polygon points="628.4,533.6 631.5,533.6 631.6,512.4 628.4,512.4" fill="#ffe45c" stroke="#8c7d33" stroke-width="0.4"/>
<polygon points="631.5,533.6 631.8,533.6 631.9,512.4 631.6,512.4" fill="#ffe95e" stroke="#8c8034" stroke-width="0.4"/>
<polygon points="768.5,533.6 771.6,533.6 771.6,512.4 768.4,512.4" fill="#ffe45c" stroke="#8c7d33" stroke-width="0.4"/>
<polygon points="768.2,533.6 768.5,533.6 768.4,512.4 768.1,512.4" fill="#f5db58" stroke="#877830" stroke-width="0.4"/>
<polygon points="667.3,534.0 669.9,534.0 669.9,533.9 667.3,533.9" fill="#7d6620" stroke="#453812" stroke-width="0.4"/>
<polygon points="669.9,534.0 673.2,533.3 673.2,533.2 669.9,533.9" fill="#806821" stroke="#463912" stroke-width="0.4"/>
<polygon points="730.1,534.0 732.7,534.0 732.7,533.9 730.1,533.9" fill="#7d6620" stroke="#453812" stroke-width="0.4"/>
<polygon points="726.8,533.3 730.1,534.0 730.1,533.9 726.8,533.2" fill="#78621f" stroke="#423611" stroke-width="0.4"/>
<polygon points="684.2,533.6 715.8,533.6 715.8,533.5 684.2,533.5" fill="#7d6620" stroke="#453812" stroke-width="0.4"/>
<polygon points="656.6,516.2 667.0,516.2 667.0,512.2 656.6,512.2" fill="#ffe45c" stroke="#8c7d33" stroke-width="0.4"/>
<polygon points="667.0,516.2 667.4,516.3 667.4,512.4 667.0,512.2" fill="#ffe95e" stroke="#8c8034" stroke-width="0.4"/>
<polygon points="733.0,516.2 743.4,516.2 743.4,512.2 733.0,512.2" fill="#ffe45c" stroke="#8c7d33" stroke-width="0.4"/>
<polygon points="732.6,516.3 733.0,516.2 733.0,512.2 732.6,512.4" fill="#f5db58" stroke="#877830" stroke-width="0.4"/>
<polygon points="656.2,533.7 667.3,533.7 667.3,531.3 656.2,531.3" fill="#ffe45c" stroke="#8c7d33" stroke-width="0.4"/>
<polygon points="667.3,533.7 667.8,533.6 667.8,531.2 667.3,531.3" fill="#ffe95e" stroke="#8c8034" stroke-width="0.4"/>
<polygon points="732.7,533.7 743.8,533.7 743.8,531.3 732.7,531.3" fill="#ffe45c" stroke="#8c7d33" stroke-width="0.4"/>
<polygon points="732.2,533.6 732.7,533.7 732.7,531.3 732.2,531.2" fill="#f5db58" stroke="#877830" stroke-width="0.4"/>
<polygon points="657.9,531.3 665.8,531.3 665.8,516.2 657.9,516.2" fill="#b8332e" stroke="#651c19" stroke-width="0.4"/>
<polygon points="665.8,531.3 666.2,531.3 666.2,516.3 665.8,516.2" fill="#bc342f" stroke="#671d1a" stroke-width="0.4"/>
<polygon points="734.2,531.3 742.1,531.3 742.1,516.2 734.2,516.2" fill="#b8332e" stroke="#651c19" stroke-width="0.4"/>
<polygon points="733.8,531.3 734.2,531.3 734.2,516.2 733.8,516.3" fill="#b1312c" stroke="#611b18" stroke-width="0.4"/>
<polygon points="772.9,531.3 773.3,531.3 773.3,521.7 772.9,521.7" fill="#7d6620" stroke="#453812" stroke-width="0.4"/>
<polygon points="772.3,531.3 772.9,531.3 772.9,521.7 772.3,521.7" fill="#78621f" stroke="#423611" stroke-width="0.4"/>
<polygon points="658.8,516.0 663.6,516.0 663.6,512.0 658.8,512.0" fill="#ffe45c" stroke="#8c7d33" stroke-width="0.4"/>
<polygon points="663.6,516.0 664.2,516.2 664.2,512.2 663.6,512.0" fill="#ffe95e" stroke="#8c8034" stroke-width="0.4"/>
<polygon points="736.4,516.0 741.2,516.0 741.2,512.0 736.4,512.0" fill="#ffe45c" stroke="#8c7d33" stroke-width="0.4"/>
<polygon points="735.8,516.2 736.4,516.0 736.4,512.0 735.8,512.2" fill="#f5db58" stroke="#877830" stroke-width="0.4"/>
<polygon points="731.4,533.7 760.3,533.7 760.3,533.6 731.4,533.6" fill="#7d6620" stroke="#453812" stroke-width="0.4"/>
<polygon points="731.3,533.7 731.4,533.7 731.4,533.6 731.3,533.6" fill="#78621f" stroke="#423611" stroke-width="0.4"/>
<polygon points="655.4,515.8 666.0,515.8 666.0,511.7 655.4,511.7" fill="#ffe45c" stroke="#8c7d33" stroke-width="0.4"/>
<polygon points="666.0,515.8 666.5,516.0 666.5,512.0 666.0,511.7" fill="#ffe95e" stroke="#8c8034" stroke-width="0.4"/>
<polygon points="734.0,515.8 744.6,515.8 744.6,511.7 734.0,511.7" fill="#ffe45c" stroke="#8c7d33" stroke-width="0.4"/>
<polygon points="733.5,516.0 734.0,515.8 734.0,511.7 733.5,512.0" fill="#f5db58" stroke="#877830" stroke-width="0.4"/>
<polygon points="654.9,533.9 666.4,533.9 666.4,531.4 654.9,531.4" fill="#ffe45c" stroke="#8c7d33" stroke-width="0.4"/>
<polygon points="666.4,533.9 666.9,533.8 666.9,531.4 666.4,531.4" fill="#ffe95e" stroke="#8c8034" stroke-width="0.4"/>
<polygon points="733.6,533.9 745.1,533.9 745.1,531.4 733.6,531.4" fill="#ffe45c" stroke="#8c7d33" stroke-width="0.4"/>
<polygon points="733.1,533.8 733.6,533.9 733.6,531.4 733.1,531.4" fill="#f5db58" stroke="#877830" stroke-width="0.4"/>
<polygon points="656.6,531.4 664.8,531.4 664.8,515.9 656.7,515.9" fill="#b8332e" stroke="#651c19" stroke-width="0.4"/>
<polygon points="664.8,531.4 665.2,531.4 665.2,516.0 664.8,515.9" fill="#bc342f" stroke="#671d1a" stroke-width="0.4"/>
<polygon points="735.2,531.4 743.4,531.4 743.3,515.9 735.2,515.9" fill="#b8332e" stroke="#651c19" stroke-width="0.4"/>
<polygon points="734.8,531.4 735.2,531.4 735.2,515.9 734.8,516.0" fill="#b1312c" stroke="#611b18" stroke-width="0.4"/>
<polygon points="657.6,515.7 662.6,515.7 662.6,511.5 657.6,511.5" fill="#ffe45c" stroke="#8c7d33" stroke-width="0.4"/>
<polygon points="662.6,515.7 663.1,515.8 663.2,511.7 662.6,511.5" fill="#ffe95e" stroke="#8c8034" stroke-width="0.4"/>
<polygon points="737.4,515.7 742.4,515.7 742.4,511.5 737.4,511.5" fill="#ffe45c" stroke="#8c7d33" stroke-width="0.4"/>
<polygon points="736.9,515.8 737.4,515.7 737.4,511.5 736.8,511.7" fill="#f5db58" stroke="#877830" stroke-width="0.4"/>
<polygon points="654.0,515.5 665.0,515.5 665.0,511.3 654.0,511.3" fill="#ffe45c" stroke="#8c7d33" stroke-width="0.4"/>
<polygon points="665.0,515.5 665.5,515.7 665.5,511.5 665.0,511.3" fill="#ffe95e" stroke="#8c8034" stroke-width="0.4"/>
<polygon points="735.0,515.5 746.0,515.5 746.0,511.3 735.0,511.3" fill="#ffe45c" stroke="#8c7d33" stroke-width="0.4"/>
<polygon points="734.5,515.7 735.0,515.5 735.0,511.3 734.5,511.5" fill="#f5db58" stroke="#877830" stroke-width="0.4"/>
<polygon points="653.5,534.1 665.4,534.1 665.4,531.5 653.5,531.5" fill="#ffe45c" stroke="#8c7d33" stroke-width="0.4"/>
<polygon points="665.4,534.1 665.9,534.0 665.9,531.5 665.4,531.5" fill="#ffe95e" stroke="#8c8034" stroke-width="0.4"/>
<polygon points="734.6,534.1 746.5,534.1 746.5,531.5 734.6,531.5" fill="#ffe45c" stroke="#8c7d33" stroke-width="0.4"/>
<polygon points="734.1,534.0 734.6,534.1 734.6,531.5 734.1,531.5" fill="#f5db58" stroke="#877830" stroke-width="0.4"/>
<polygon points="655.3,531.5 663.8,531.5 663.8,515.5 655.4,515.5" fill="#b8332e" stroke="#651c19" stroke-width="0.4"/>
<polygon points="663.8,531.5 664.1,531.5 664.2,515.6 663.8,515.5" fill="#bc342f" stroke="#671d1a" stroke-width="0.4"/>
<polygon points="736.2,531.5 744.7,531.5 744.6,515.5 736.2,515.5" fill="#b8332e" stroke="#651c19" stroke-width="0.4"/>
<polygon points="735.9,531.5 736.2,531.5 736.2,515.5 735.8,515.6" fill="#b1312c" stroke="#611b18" stroke-width="0.4"/>
<polygon points="667.2,534.0 732.8,534.0 732.8,533.9 667.2,533.9" fill="#7d6620" stroke="#453812" stroke-width="0.4"/>
<polygon points="618.0,534.1 638.5,534.1 638.7,472.8 618.3,472.8" fill="#6b4bb0" stroke="#3b2961" stroke-width="0.4"/>
<polygon points="638.5,534.1 640.1,534.0 640.2,474.2 638.7,472.8" fill="#6d4db4" stroke="#3c2a63" stroke-width="0.4"/>
<polygon points="761.5,534.1 782.0,534.1 781.7,472.8 761.3,472.8" fill="#6b4bb0" stroke="#3b2961" stroke-width="0.4"/>
<polygon points="759.9,534.0 761.5,534.1 761.3,472.8 759.8,474.2" fill="#6748a9" stroke="#39285d" stroke-width="0.4"/>
<polygon points="638.5,534.1 682.1,534.1 682.1,472.8 638.7,472.8" fill="#6b4bb0" stroke="#3b2961" stroke-width="0.4"/>
<polygon points="682.1,534.1 682.2,534.1 682.2,473.1 682.1,472.8" fill="#6d4db4" stroke="#3c2a63" stroke-width="0.4"/>
<polygon points="717.9,534.1 761.5,534.1 761.3,472.8 717.9,472.8" fill="#6b4bb0" stroke="#3b2961" stroke-width="0.4"/>
<polygon points="717.8,534.1 717.9,534.1 717.9,472.8 717.8,473.1" fill="#6748a9" stroke="#39285d" stroke-width="0.4"/>
<polygon points="686.4,506.8 686.4,506.9 713.6,506.9 713.6,506.8" fill="#5e429b" stroke="#342455" stroke-width="0.4"/>
<polygon points="686.4,506.8 713.6,506.8 713.6,472.8 686.4,472.8" fill="#6b4bb0" stroke="#3b2961" stroke-width="0.4"/>
<polygon points="682.0,534.2 686.3,534.2 686.3,465.8 682.1,465.8" fill="#ffe45c" stroke="#8c7d33" stroke-width="0.4"/>
<polygon points="713.7,534.2 718.0,534.2 717.9,465.8 713.7,465.8" fill="#ffe45c" stroke="#8c7d33" stroke-width="0.4"/>
<polygon points="616.3,479.5 616.5,479.6 783.5,479.6 783.7,479.5" fill="#e0c951" stroke="#7b6f2d" stroke-width="0.4"/>
<polygon points="616.3,479.5 783.7,479.5 783.6,472.7 616.4,472.7" fill="#ffe45c" stroke="#8c7d33" stroke-width="0.4"/>
<text x="14" y="26" font-family="monospace" font-size="15" fill="#8fa0bd">CROWN — THE APPROACH (standing on the terrace, start of the causeway)</text>
<text x="14" y="46" font-family="monospace" font-size="11" fill="#5f6f8d">97 drawn / 98 selected / 13157 in map  •  x[-784,784] y[7816,9392] z[19376,20032]</text>
</svg>